<?xml version="1.0" encoding="utf-8"?>
<svg version="1.1" xmlns:xlink="http://www.w3.org/1999/xlink" width="42px" height="43px" xmlns="http://www.w3.org/2000/svg">
  <defs>
    <linearGradient gradientUnits="userSpaceOnUse" x1="21" y1="0" x2="21" y2="43" id="LinearGradient1">
      <stop id="Stop2" stop-color="#ff0000" offset="0" />
      <stop id="Stop3" stop-color="#ff3264" offset="1" />
    </linearGradient>
  </defs>
  <g transform="matrix(1 0 0 1 -412 -612 )">
    <path d="M 41.9787684375 21.669702421875  C 41.97996759375 33.291406921875  32.597337 42.63566353125  20.99601871875 42.63566353125  C 9.45067842187501 42.6769635  -0.180855375000021 33.18678984375  0.0244454062499813 21.27560165625  C 0.222742968750026 9.772664625  9.75642314062497 0.445772250000005  21.462214640625 0.690166546874991  C 32.59724109375 0.922616953124987  41.977569234375 9.98722312500001  41.9787684375 21.669702421875  Z M 22.8219969375 29.20592090625  C 24.502537265625 29.31523875  26.17986403125 29.474634703125  27.90376725 29.615419265625  C 27.925544484375 29.55934528125  27.961232296875 29.471468859375  27.993946125 29.3824891875  C 29.001071296875 26.641435640625  30.00997125 23.901005625  31.010620828125 21.157553671875  C 31.0838191875 20.95685775  31.18546228125 20.863560984375  31.398198046875 20.807870765625  C 32.556804515625 20.50457240625  33.248303671875 19.358869171875  32.9776711875 18.22674075  C 32.724019171875 17.1656041875  31.69367775 16.45036115625  30.599587546875 16.575939984375  C 29.583636375 16.69254890625  28.7608981875 17.615635078125  28.7387851875 18.664683796875  C 28.72813640625 19.169493515625  28.885997390625 19.6202439375  29.203350234375 20.029022765625  C 28.232536453125 21.16988128125  27.270596625 22.300330828125  26.278341375 23.466372234375  C 25.925924296875 21.363621890625  25.584443859375 19.32625125  25.241476359375 17.280150515625  C 25.317936515625 17.24882775  25.376169046875 17.22546759375  25.433969859375 17.201244  C 26.526189328125 16.743826125  27.038242171875 15.6472895625  26.694075515625 14.5029774375  C 26.36185275 13.3984303125  25.20602840625 12.68688075  24.099178875 12.909689671875  C 23.2062163125 13.089423796875  22.59861225 13.616826234375  22.331385421875 14.480048953125  C 22.055380546875 15.371620453125  22.2714740625 16.17229359375  22.93668703125 16.831798453125  C 23.07133171875 16.9652919375  23.096994328125 17.067894375  23.0385699375 17.243791125  C 22.40765371875 19.1439748125  21.7855155 21.047084484375  21.159923671875 22.949042953125  C 21.1386740625 23.013655125  21.106871625 23.0748136875  21.058856203125 23.187009609375  C 20.34155053125 21.096586921875  19.641417234375 19.056194296875  18.94305871875 17.020934203125  C 20.00553834375 16.35936675  20.1459391875 15.121038328125  19.815395296875 14.319070078125  C 19.415202609375 13.348112390625  18.41431321875 12.75139696875  17.39831409375 12.886713234375  C 16.366053984375 13.024140046875  15.537655640625 13.853401828125  15.423157265625 14.878994484375  C 15.364924734375 15.40078471875  15.4568304375 15.898207453125  15.73182796875 16.352891203125  C 16.034694609375 16.853575734375  16.45469784375 17.1954879375  17.075780765625 17.290127765625  C 16.651556390625 19.34913178125  16.232032828125 21.385255265625  15.807280828125 23.44675359375  C 15.7516385625 23.397682875  15.71916459375 23.374802390625  15.693645890625 23.34578203125  C 14.7494060625 22.271454421875  13.807228875 21.195256078125  12.859871203125 20.123662640625  C 12.76647853125 20.018038265625  12.784226484375 19.94344884375  12.84212325 19.829669953125  C 12.97887853125 19.5610520625  13.1505061875 19.293057796875  13.2091224375 19.0046773125  C 13.47711675 17.686387125  12.236294015625 16.273792875  10.708385953125 16.56956034375  C 9.72596404687499 16.759751390625  8.93886567187502 17.7027440625  8.94404615625001 18.70905375  C 8.94941849999998 19.756999265625  9.72970546875001 20.692940671875  10.733952609375 20.830271578125  C 10.901407078125 20.8531520625  10.95719325 20.92328053125  11.006935546875 21.062721984375  C 11.5459940625 22.573026  12.090568828125 24.081411328125  12.63322490625 25.5904201875  C 13.097646046875 26.881944515625  13.562115140625 28.173468890625  14.02456959375 29.46571275  C 14.0670208125 29.5843363125  14.098295625 29.674275328125  14.267524875 29.65379325  C 14.86999640625 29.58093065625  15.475537828125 29.5340184375  16.07848903125 29.464561546875  C 18.319961296875 29.20649653125  20.56714171875 29.059284328125  22.8219969375 29.20592090625  Z " fill-rule="nonzero" fill="url(#LinearGradient1)" stroke="none" transform="matrix(1 0 0 1 412 612 )" />
  </g>
</svg>