<?xml version="1.0" encoding="utf-8"?>
<svg version="1.1" xmlns:xlink="http://www.w3.org/1999/xlink" width="42px" height="42px" xmlns="http://www.w3.org/2000/svg">
  <g transform="matrix(1 0 0 1 -416 -148 )">
    <path d="M 42 21  C 42 9.40202025355336  32.5979797464466 0  21 0  C 9.40202025355336 0  0 9.40202025355336  0 21  C 0 32.5979797464466  9.40202025355336 42  21 42  C 32.5979797464466 42  42 32.5979797464466  42 21  Z M 31.5294082031251 18.87481640625  C 30.7110493221759 20.1869121297945  29.4341540272601 21.1479422360118  27.94681640625 21.57118359375  C 27.6224825883033 21.6770166079572  27.2841193077223 21.7336455201603  26.943 21.73918359375  C 26.2869668692039 21.7353366198698  25.7571781409006 21.2024321053262  25.7571781409006 20.5463876953125  C 25.7571781409006 19.8903432852988  26.2869668692039 19.3574387707552  26.943 19.353591796875  C 27.0337679756262 19.3556698223036  27.1239459934833 19.3384897286831  27.207591796875 19.30318359375  C 28.1628183593339 19.0657835199945  28.9864388435998 18.4623942330059  29.500775390625 17.62318359375  C 29.8000079220792 17.1340408427842  29.9570882804779 16.5712216345906  29.954408203125 15.99781640625  C 29.954408203125 14.112  28.211408203125 12.558  26.086224609375 12.558  C 25.3507911786106 12.5595501985769  24.6279427641634 12.7489308359088  23.986224609375 13.10818359375  C 22.9090969177291 13.6753935646103  22.2230146739697 14.7808450508844  22 15.99781640625  L 22 26.01481640625  C 22.1715828472807 28.0811607145409  21.0294890321986 29.972847848671  19.2108164062499 30.954  C 18.2124485677024 31.5153365752757  17.0843019887116 31.8049748094205  15.939 31.794  C 12.47818359375 31.794  9.63900000000001 29.19  9.63900000000001 25.968591796875  C 9.64512228765727 24.9580445569996  9.92526812625658 23.9680863052026  10.449591796875 23.10418359375  C 11.2679506778242 21.7920878702055  12.5448459727399 20.8310577639883  14.03218359375 20.40781640625  C 14.3568962424813 20.3035351093814  14.6950277482626 20.2469449873057  15.0359999999999 20.23981640625  C 15.0383314906635 20.2398027344044  15.0406630164017 20.2397958984375  15.0429945471506 20.2397958984375  C 15.7017688576705 20.2397958984375  16.2358109534006 20.7738379941677  16.2358109534006 21.4326123046875  C 16.2358109534006 22.0913866152073  15.7017688576705 22.6254287109375  15.0429945471506 22.6254287109375  C 15.0406630164017 22.6254287109375  15.0383314906635 22.6254218749706  15.0359999999999 22.625408203125  C 14.9452320243738 22.6233301776963  14.8550540065168 22.6405102713169  14.771408203125 22.67581640625  C 13.8243919888592 22.9305339985618  13.0065976721157 23.5296550004186  12.478224609375 24.35581640625  C 12.1789920779207 24.8449591572158  12.0219117195221 25.4077783654095  12.024591796875 25.98118359375  C 12.024591796875 27.867  13.767591796875 29.421  15.918 29.421  C 16.6534334307644 29.4194498014231  17.3762818452116 29.2300691640912  18.018 28.87081640625  C 19.0934930990928 28.3024873439007  19.7778255932714 27.1972516169769  19.80718359375 25.98118359375  L 19.80718359375 16.01044921875  C 19.8304224542231 13.9424512802932  20.973718205313 12.0498349054926  22.793408203125 11.067041015625  C 23.773701601006 10.479599984434  24.8972190333778 10.1743745550142  26.04 10.185041015625  C 29.50081640625 10.185041015625  32.34 12.789041015625  32.34 16.01044921875  C 32.3338777123427 17.0209964586254  32.0537318737433 18.0109547104224  31.5294082031249 18.874857421875  Z " fill-rule="nonzero" fill="#6468ef" stroke="none" transform="matrix(1 0 0 1 416 148 )" />
  </g>
</svg>